<svg width="52" height="52" viewBox="0 0 52 52" fill="none" xmlns="http://www.w3.org/2000/svg">
<path d="M37.8476 0V4.04339H45.0512L38.2277 10.9293C35.7889 9.08746 32.8167 8.08968 29.7605 8.08678C25.9798 8.08678 22.4498 9.58283 19.777 12.2575C18.4558 13.5627 17.4069 15.1171 16.6911 16.8307C15.9753 18.5443 15.6068 20.383 15.607 22.2401C15.6072 24.0972 15.976 25.9357 16.6922 27.6492C17.4084 29.3626 18.4576 30.9169 19.779 32.2218C21.5379 33.9806 23.6325 35.2442 25.9697 35.8851C26.2002 35.7092 26.4589 35.5252 26.6652 35.319C27.5126 34.4571 28.1215 33.3898 28.4322 32.2218C26.2309 31.951 24.1841 30.9493 22.6196 29.3772C20.711 27.4708 19.6516 24.9396 19.6516 22.2386C19.6516 19.5377 20.7131 17.0105 22.6236 15.1021C24.5282 13.1875 27.0594 12.1302 29.7605 12.1302C32.4616 12.1302 34.9908 13.1916 36.8974 15.1021C37.8403 16.0358 38.5886 17.1474 39.0988 18.3724C39.6089 19.5975 39.8709 20.9116 39.8694 22.2386C39.8694 23.9874 39.374 25.6149 38.5431 27.1028C38.7372 28.146 38.8585 29.2418 38.8585 30.3254C38.8585 31.3349 38.7742 32.3255 38.6058 33.2973C39.0101 32.9678 39.37 32.5938 39.744 32.2218C42.4168 29.545 43.9129 26.0192 43.9129 22.2386C43.9129 19.1454 42.8939 16.2059 41.0703 13.7718L47.9565 6.95059V14.1519H52V0H37.8476ZM25.4642 16.679C25.2338 16.8549 24.975 17.0388 24.7687 17.2451C23.8953 18.1225 23.3252 19.1859 23.0017 20.3443C25.2054 20.6273 27.2171 21.5897 28.8143 23.1868C30.7249 25.0933 31.7863 27.6244 31.7863 30.3234C31.7863 33.0224 30.7249 35.5515 28.8143 37.46C26.9058 39.3765 24.3745 40.4339 21.6734 40.4339C18.9723 40.4339 16.4431 39.3725 14.5365 37.462C13.5927 36.5289 12.8438 35.4175 12.3336 34.1923C11.8233 32.9671 11.5619 31.6526 11.5645 30.3254C11.5645 28.5766 12.0599 26.9492 12.8908 25.4612C12.6901 24.3985 12.5846 23.3201 12.5754 22.2386C12.5754 21.2305 12.6597 20.2399 12.8282 19.2667C12.4238 19.5963 12.0659 19.9703 11.6899 20.3443C9.02115 23.015 7.521 26.5448 7.521 30.3254C7.521 33.4186 8.53997 36.3581 10.3636 38.7923L6.9549 42.2029L2.91135 38.1595L0 41.002L4.04355 45.0454L0 49.0888L2.91135 52L6.9549 47.9566L10.9984 52L13.839 49.0888L9.79549 45.0454L13.2082 41.6368C15.6447 43.4814 18.6174 44.4789 21.6734 44.4773C25.4541 44.4773 28.9841 42.9812 31.6569 40.3065C34.3297 37.6359 35.8258 34.106 35.8258 30.3254C35.8258 26.5448 34.3297 23.019 31.6549 20.3423C29.896 18.5834 27.8014 17.3199 25.4642 16.679Z" fill="black"/>
</svg>
