<svg width="18" height="16" viewBox="0 0 18 16" fill="none" xmlns="http://www.w3.org/2000/svg">
<path d="M5.7475 4C5.5575 4 5.3675 3.93 5.2175 3.78L3.2475 1.81L1.2775 3.78C0.9875 4.07 0.5075 4.07 0.2175 3.78C-0.0725 3.49 -0.0725 3.01 0.2175 2.72L2.7175 0.220002C3.0075 -0.0699975 3.4875 -0.0699975 3.7775 0.220002L6.2775 2.72C6.5675 3.01 6.5675 3.49 6.2775 3.78C6.1275 3.93 5.9375 4 5.7475 4Z" fill="black"/>
<path d="M3.24756 15.5C2.83756 15.5 2.49756 15.16 2.49756 14.75V0.75C2.49756 0.34 2.83756 0 3.24756 0C3.65756 0 3.99756 0.34 3.99756 0.75V14.75C3.99756 15.16 3.65756 15.5 3.24756 15.5ZM16.7476 4H8.74756C8.33756 4 7.99756 3.66 7.99756 3.25C7.99756 2.84 8.33756 2.5 8.74756 2.5H16.7476C17.1576 2.5 17.4976 2.84 17.4976 3.25C17.4976 3.66 17.1576 4 16.7476 4ZM12.7476 10H8.74756C8.33756 10 7.99756 9.66 7.99756 9.25C7.99756 8.84 8.33756 8.5 8.74756 8.5H12.7476C13.1576 8.5 13.4976 8.84 13.4976 9.25C13.4976 9.66 13.1576 10 12.7476 10ZM10.7476 13H8.74756C8.33756 13 7.99756 12.66 7.99756 12.25C7.99756 11.84 8.33756 11.5 8.74756 11.5H10.7476C11.1576 11.5 11.4976 11.84 11.4976 12.25C11.4976 12.66 11.1576 13 10.7476 13ZM14.7476 7H8.74756C8.33756 7 7.99756 6.66 7.99756 6.25C7.99756 5.84 8.33756 5.5 8.74756 5.5H14.7476C15.1576 5.5 15.4976 5.84 15.4976 6.25C15.4976 6.66 15.1576 7 14.7476 7Z" fill="black"/>
</svg>
